<svg xmlns="http://www.w3.org/2000/svg" width="256" height="256" fill="none"><rect width="256" height="256" rx="60" fill="#242938"/><path d="M206.709 91.241c-.405-.43-.836-.86-1.266-1.266-.431-.405-.836-.86-1.266-1.265-.43-.406-.835-.861-1.266-1.266-.43-.405-.835-.861-1.266-1.266-.43-.405-.835-.86-1.265-1.266-.431-.405-.836-.86-1.266-1.266-.431-.405-.836-.86-1.266-1.266a66.988 66.988 0 0120.025 46.735c0 41.949-42.582 76.076-94.937 76.076-29.316 0-55.544-10.709-72.987-27.494l1.266 1.266 1.266 1.266 1.265 1.265 1.266 1.266 1.266 1.266 1.266 1.266 1.266 1.266c17.418 17.493 44.228 28.759 74.253 28.759 52.354 0 94.937-34.126 94.937-75.949 0-17.874-7.696-34.81-21.291-48.127z" fill="#000"/><path d="M211.544 129.114c0 38.506-39.67 69.722-88.607 69.722s-88.608-31.216-88.608-69.722c0-23.873 15.19-44.962 38.532-57.468 23.342-12.507 37.873-25.317 50.076-25.317 12.202 0 22.633 10.456 50.076 25.317 23.342 12.506 38.531 33.595 38.531 57.468z" fill="#FBF0DF"/><path d="M211.544 129.114a54.835 54.835 0 00-2.025-14.633c-6.911 84.304-109.747 88.354-150.177 63.139a101.265 101.265 0 0063.595 21.215c48.861 0 88.607-31.265 88.607-69.721z" fill="#F6DECE"/><path d="M88.835 67.013c11.317-6.785 26.355-19.52 41.14-19.545a23.526 23.526 0 00-7.038-1.139c-6.127 0-12.658 3.165-20.886 7.924-2.861 1.671-5.823 3.52-8.962 5.443-5.9 3.646-12.659 7.772-20.254 11.899-24.1 13.038-38.506 34.532-38.506 57.519v3.013c15.342-54.203 43.215-58.33 54.506-65.114z" fill="#FFFEFC"/><path fill-rule="evenodd" clip-rule="evenodd" d="M115.645 52.734a41.533 41.533 0 01-14.253 31.57c-.709.633-.152 1.848.76 1.493 8.531-3.316 20.05-13.24 15.19-33.265-.203-1.14-1.697-.836-1.697.202zm5.747 0a41.117 41.117 0 014.076 34.101c-.304.887.785 1.646 1.393.912 5.544-7.089 10.379-21.165-4.102-36.355-.734-.658-1.873.355-1.367 1.24v.102zm6.988-.43a41.562 41.562 0 0117.341 29.772.837.837 0 001.646.278c2.329-8.835 1.013-23.898-18.152-31.721-1.013-.405-1.671.962-.835 1.57v.1zM81.645 78.633a42.887 42.887 0 0026.507-22.785c.455-.911 1.899-.557 1.671.456-4.38 20.253-19.038 24.48-28.152 23.924-.962.025-.937-1.317-.026-1.595z" fill="#CCBEA7"/><path d="M122.937 205.19C70.582 205.19 28 171.063 28 129.114c0-25.316 15.646-48.937 41.848-63.089 7.595-4.05 14.101-8.126 19.899-11.696a529.646 529.646 0 019.114-5.544C107.747 43.519 115.342 40 122.937 40c7.595 0 14.228 3.038 22.531 7.95 2.532 1.442 5.064 3.012 7.773 4.734 6.303 3.898 13.417 8.303 22.784 13.341 26.203 14.152 41.849 37.747 41.849 63.089 0 41.949-42.583 76.076-94.937 76.076zm0-158.86c-6.127 0-12.658 3.164-20.886 7.923-2.861 1.671-5.823 3.52-8.962 5.443-5.9 3.646-12.659 7.772-20.254 11.899-24.1 13.038-38.506 34.532-38.506 57.519 0 38.456 39.747 69.747 88.608 69.747 48.861 0 88.607-31.291 88.607-69.747 0-22.987-14.405-44.481-38.531-57.468-9.57-5.064-17.038-9.823-23.089-13.57-2.759-1.696-5.291-3.266-7.595-4.658-7.671-4.557-13.266-7.089-19.392-7.089z" fill="#000"/><path d="M140.785 147.596a22.61 22.61 0 01-7.392 11.924 17.24 17.24 0 01-10.127 4.759 17.314 17.314 0 01-10.456-4.759 22.608 22.608 0 01-7.291-11.924 1.815 1.815 0 01.51-1.522 1.821 1.821 0 011.515-.529h31.241a1.818 1.818 0 011.498.54 1.83 1.83 0 01.502 1.511z" fill="#B71422"/><path d="M112.81 159.722a17.502 17.502 0 0010.431 4.81 17.502 17.502 0 0010.405-4.81 26.898 26.898 0 002.531-2.709 17.273 17.273 0 00-12.405-5.848 15.56 15.56 0 00-12.658 7.038c.582.531 1.089 1.038 1.696 1.519z" fill="#FF6164"/><path d="M113.215 157.722a13.572 13.572 0 0110.608-5.266 15.194 15.194 0 0110.127 4.278 39.938 39.938 0 001.67-1.949 17.723 17.723 0 00-11.924-4.886 16.092 16.092 0 00-12.379 5.975c.598.65 1.232 1.267 1.898 1.848z" fill="#000"/><path d="M123.165 165.798a18.783 18.783 0 01-11.266-5.064 24.095 24.095 0 01-7.873-12.784 3.036 3.036 0 01.658-2.532 3.571 3.571 0 012.861-1.291h31.24a3.642 3.642 0 012.861 1.291 3.018 3.018 0 01.633 2.532 24.097 24.097 0 01-7.874 12.784 18.782 18.782 0 01-11.24 5.064zm-15.62-18.735c-.406 0-.507.178-.532.228a20.988 20.988 0 006.911 11.064 15.771 15.771 0 009.241 4.43 15.9 15.9 0 009.24-4.38 21.012 21.012 0 006.886-11.063.527.527 0 00-.506-.228l-31.24-.051z" fill="#000"/><path d="M161.469 149.164c8.179 0 14.81-3.899 14.81-8.709 0-4.809-6.631-8.708-14.81-8.708-8.18 0-14.81 3.899-14.81 8.708 0 4.81 6.63 8.709 14.81 8.709zM84.836 149.164c8.18 0 14.81-3.899 14.81-8.709 0-4.809-6.63-8.708-14.81-8.708s-14.81 3.899-14.81 8.708c0 4.81 6.63 8.709 14.81 8.709z" fill="#FEBBD0"/><path fill-rule="evenodd" clip-rule="evenodd" d="M91.798 136.962a13.948 13.948 0 0013.71-16.655 13.95 13.95 0 10-13.71 16.655zm62.709 0a13.946 13.946 0 0012.959-8.541 13.949 13.949 0 10-26.807-5.409 13.922 13.922 0 0013.848 13.95z" fill="#000"/><path fill-rule="evenodd" clip-rule="evenodd" d="M87.494 123.898a5.243 5.243 0 003.74-8.937 5.241 5.241 0 10-3.74 8.937zm62.709 0a5.246 5.246 0 004.86-3.217 5.248 5.248 0 00-1.12-5.72 5.243 5.243 0 00-8.07.783 5.238 5.238 0 00.623 6.593 5.238 5.238 0 003.656 1.561h.051z" fill="#fff"/></svg>