<svg xmlns="http://www.w3.org/2000/svg" width="256" height="256" fill="none"><rect width="256" height="256" rx="40" fill="#FFF312"/><path d="M108.364 99L75.73 157H46l25.482-45.289C75.432 104.691 85.289 99 93.499 99h14.865zm72.906 14.5c0-8.008 6.655-14.5 14.865-14.5 8.209 0 14.865 6.492 14.865 14.5s-6.656 14.5-14.865 14.5c-8.21 0-14.865-6.492-14.865-14.5zM113.938 99h29.73l-32.634 58h-29.73l32.634-58zm35.114 0h29.73L153.3 144.289c-3.95 7.02-13.808 12.711-22.017 12.711h-14.865l32.634-58z" fill="#000"/></svg>