<svg xmlns="http://www.w3.org/2000/svg" width="256" height="256" fill="none"><rect width="256" height="256" rx="40" fill="#15191C"/><path d="M191.867 126.65l-65.217 65.217c-2.544 2.544-2.544 6.675 0 9.225 2.544 2.544 6.675 2.544 9.225 0l65.217-65.217c2.544-2.55 2.544-6.681 0-9.225-2.55-2.544-6.681-2.544-9.225 0zm-13.043-71.742L54.908 178.824c-2.544 2.544-2.544 6.675 0 9.225 2.55 2.543 6.68 2.543 9.225 0L188.049 64.133c2.543-2.544 2.543-6.675 0-9.225-2.55-2.544-6.681-2.544-9.225 0z" fill="#F4F2ED"/></svg>