<svg xmlns="http://www.w3.org/2000/svg" width="256" height="256" fill="none"><rect width="256" height="256" rx="40" fill="#15191C"/><path d="M148.994 147.403l-3.356 5.829a5.673 5.673 0 01-4.91 2.838h-25.715a5.669 5.669 0 01-4.91-2.838l-3.357-5.829h42.248zm9.397-16.317l-5.918 10.277h-49.205l-5.919-10.277h61.042zm-5.701-15.956l5.711 9.916H97.34l5.71-9.916h49.64zm-11.963-15.085a5.663 5.663 0 014.911 2.838l3.574 6.206h-42.683l3.575-6.206a5.66 5.66 0 014.909-2.838h25.714z" fill="#00435B"/><path d="M77.588 97.34c-2.848-13.812-3.46-24.407-1.619-32.1 1.095-4.574 3.097-8.307 6.142-11C85.325 51.397 89.388 50 93.955 50c7.531 0 15.45 3.436 23.912 9.96 3.452 2.662 7.034 5.87 10.754 9.627.297-.38.631-.74 1.004-1.073 10.518-9.373 19.373-15.197 26.947-17.442 4.504-1.335 8.732-1.462 12.582-.166 4.065 1.367 7.303 4.195 9.588 8.155 3.771 6.536 4.765 15.124 3.359 25.728-.573 4.323-1.552 9.03-2.936 14.132.522.063 1.045.18 1.564.35 13.344 4.424 22.794 9.179 28.515 14.614 3.404 3.233 5.627 6.833 6.431 10.819.847 4.206.02 8.424-2.262 12.382-3.764 6.527-10.684 11.673-20.543 15.75-3.958 1.637-8.438 3.12-13.442 4.454.228.515.406 1.063.524 1.637 2.849 13.813 3.46 24.407 1.619 32.1-1.095 4.575-3.098 8.307-6.142 11.001-3.214 2.843-7.278 4.238-11.844 4.238-7.532 0-15.45-3.435-23.912-9.96-3.489-2.691-7.11-5.938-10.874-9.747a8.035 8.035 0 01-1.424 1.67c-10.518 9.373-19.373 15.196-26.947 17.441-4.504 1.336-8.732 1.463-12.582.167-4.065-1.367-7.303-4.195-9.588-8.155-3.77-6.536-4.765-15.124-3.36-25.728.595-4.479 1.625-9.372 3.09-14.687a8.113 8.113 0 01-1.717-.367c-13.344-4.423-22.794-9.178-28.515-14.614-3.404-3.233-5.627-6.833-6.43-10.818-.848-4.206-.021-8.425 2.26-12.383 3.765-6.526 10.685-11.674 20.544-15.75 4.076-1.686 8.705-3.208 13.89-4.572a8.074 8.074 0 01-.432-1.424z" fill="#002B3B"/><path d="M170.641 160.286a2.52 2.52 0 012.896 1.921l.015.077.142.735c4.587 24.114 1.355 36.172-9.694 36.172-10.809 0-24.571-10.289-41.283-30.866a2.526 2.526 0 01-.331-2.645 2.523 2.523 0 012.229-1.46h.078l.881.006a241.86 241.86 0 0020.51-.736c7.839-.624 16.025-1.692 24.557-3.204zm-75.88-18.228l.043.071.442.771a245.067 245.067 0 0011.06 17.518c4.518 6.508 9.597 13.097 15.238 19.766a2.522 2.522 0 01-.211 3.474l-.064.056-.567.489c-18.667 15.994-30.8 19.187-36.398 9.579-5.48-9.404-3.493-26.505 5.96-51.302a2.514 2.514 0 012.118-1.61 2.517 2.517 0 012.38 1.188zm85.352-35.584l.077.025.703.242c23.04 8.015 31.794 16.823 26.261 26.424-5.412 9.39-21.144 16.228-47.196 20.511a2.521 2.521 0 01-2.486-1.06 2.518 2.518 0 01-.094-2.7c3.731-6.348 7.093-12.663 10.083-18.948 3.39-7.126 6.572-14.776 9.546-22.948a2.516 2.516 0 013.03-1.569l.076.023zm-81.386-4.035a2.508 2.508 0 011.161 1.537 2.519 2.519 0 01-.266 1.909 245.411 245.411 0 00-10.083 18.947c-3.39 7.127-6.573 14.776-9.546 22.949a2.518 2.518 0 01-3.106 1.546l-.077-.025-.703-.243c-23.04-8.014-31.794-16.823-26.26-26.424 5.41-9.39 21.143-16.227 47.195-20.51a2.51 2.51 0 011.685.314zm73.969-39.476c5.48 9.404 3.493 26.505-5.961 51.302a2.512 2.512 0 01-2.117 1.61 2.518 2.518 0 01-2.38-1.188l-.042-.072-.442-.77a244.941 244.941 0 00-11.06-17.518c-4.518-6.508-9.597-13.097-15.238-19.766a2.523 2.523 0 01.211-3.474l.064-.057.567-.488c18.667-15.994 30.8-19.187 36.398-9.58zm-78.752-5.724c10.811 0 24.572 10.289 41.284 30.866a2.523 2.523 0 01.331 2.644 2.522 2.522 0 01-2.229 1.461h-.078l-.881-.005a241.989 241.989 0 00-20.51.735c-7.839.624-16.025 1.692-24.558 3.204a2.518 2.518 0 01-2.894-1.92l-.017-.078-.141-.734c-4.587-24.115-1.356-36.173 9.693-36.173z" fill="#FF4154"/><path d="M117.081 100.361h21.585a8.802 8.802 0 017.643 4.426l10.838 18.885a8.803 8.803 0 010 8.773l-10.838 18.885a8.813 8.813 0 01-7.643 4.426h-21.585a8.812 8.812 0 01-7.644-4.426L98.6 132.445a8.813 8.813 0 010-8.773l10.837-18.885a8.816 8.816 0 017.644-4.426zm18.295 5.699a8.815 8.815 0 017.646 4.431l7.557 13.185a8.809 8.809 0 010 8.765l-7.557 13.185a8.814 8.814 0 01-7.646 4.43h-15.005a8.813 8.813 0 01-7.646-4.43l-7.558-13.185a8.81 8.81 0 010-8.765l7.558-13.185a8.814 8.814 0 017.645-4.43l15.006-.001zm-3.546 6.235h-7.913a8.815 8.815 0 00-7.642 4.423l-3.994 6.95a8.81 8.81 0 000 8.781l3.994 6.951a8.805 8.805 0 003.227 3.237 8.806 8.806 0 004.415 1.186h7.913a8.814 8.814 0 007.642-4.423l3.993-6.951a8.81 8.81 0 000-8.781l-3.993-6.951a8.83 8.83 0 00-3.227-3.238 8.82 8.82 0 00-4.415-1.184zm-3.414 5.967a8.813 8.813 0 017.638 4.416l.566.984a8.808 8.808 0 010 8.793l-.566.984a8.814 8.814 0 01-7.638 4.416h-1.086a8.808 8.808 0 01-7.637-4.416l-.567-.984a8.815 8.815 0 010-8.793l.567-.984a8.817 8.817 0 017.637-4.416h1.086zm-.541 5.878c-.689 0-1.365.181-1.962.524a3.917 3.917 0 000 6.789 3.92 3.92 0 003.922-6.788 3.92 3.92 0 00-1.96-.525zm-31.794 3.918h7.055z" fill="#FFD94C"/></svg>